<svg width="19" height="19" viewBox="0 0 19 19" fill="none" xmlns="http://www.w3.org/2000/svg">
<path d="M8.5005 14.4995C9.28843 14.4995 10.0687 14.3443 10.7966 14.0428C11.5246 13.7413 12.186 13.2993 12.7431 12.7422C13.3003 12.185 13.7423 11.5236 14.0438 10.7956C14.3453 10.0677 14.5005 9.28746 14.5005 8.49953C14.5005 7.7116 14.3453 6.93138 14.0438 6.20343C13.7423 5.47547 13.3003 4.81404 12.7431 4.25689C12.186 3.69973 11.5246 3.25778 10.7966 2.95625C10.0687 2.65472 9.28843 2.49953 8.5005 2.49953C6.9092 2.49953 5.38308 3.13167 4.25786 4.25689C3.13264 5.3821 2.5005 6.90823 2.5005 8.49953C2.5005 10.0908 3.13264 11.6169 4.25786 12.7422C5.38308 13.8674 6.9092 14.4995 8.5005 14.4995ZM14.8205 13.4055L18.4005 16.9855C18.4959 17.0778 18.572 17.1882 18.6244 17.3103C18.6767 17.4323 18.7042 17.5636 18.7052 17.6963C18.7063 17.8291 18.6809 17.9608 18.6305 18.0836C18.5802 18.2065 18.5058 18.3181 18.4119 18.4119C18.3179 18.5057 18.2062 18.5799 18.0833 18.6301C17.9604 18.6803 17.8287 18.7055 17.6959 18.7043C17.5631 18.703 17.4319 18.6753 17.3099 18.6229C17.188 18.5704 17.0777 18.4941 16.9855 18.3985L13.4055 14.8185C11.798 16.0664 9.7753 16.6547 7.74926 16.4637C5.72322 16.2727 3.84611 15.3168 2.50005 13.7906C1.154 12.2643 0.440188 10.2825 0.503929 8.24845C0.56767 6.21443 1.40417 4.28115 2.84315 2.84217C4.28213 1.4032 6.2154 0.566694 8.24943 0.502952C10.2834 0.439211 12.2653 1.15302 13.7916 2.49908C15.3178 3.84513 16.2737 5.72224 16.4647 7.74828C16.6557 9.77432 16.0674 11.797 14.8195 13.4045L14.8205 13.4055Z" fill="#272727"/>
</svg>
