<svg width="28" height="29" viewBox="0 0 28 29" fill="none" xmlns="http://www.w3.org/2000/svg">
<path d="M15.3341 25.6662C15.6877 25.6661 16.0269 25.8065 16.277 26.0565C16.5271 26.3065 16.6677 26.6456 16.6678 26.9992C16.6679 27.3528 16.5275 27.692 16.2775 27.9421C16.0275 28.1922 15.6884 28.3328 15.3348 28.3328C14.9812 28.3328 14.642 28.1924 14.392 27.9423C14.1419 27.6923 14.0015 27.3531 14.0015 26.9995C14.0015 26.6459 14.1419 26.3068 14.392 26.0567C14.642 25.8067 14.9805 25.6662 15.3341 25.6662ZM10.6675 24.3328C11.0211 24.3328 11.3603 24.4732 11.6104 24.7231C11.8605 24.9731 12.001 25.3122 12.0011 25.6658C12.0012 26.0195 11.8608 26.3586 11.6108 26.6088C11.3609 26.8589 11.0217 26.9994 10.6681 26.9995C10.3145 26.9995 9.97536 26.859 9.72532 26.609C9.47527 26.3589 9.33479 26.0198 9.33479 25.6662C9.33479 25.3126 9.47527 24.9734 9.72532 24.7234C9.97536 24.4733 10.3138 24.3328 10.6675 24.3328ZM20.0008 24.3328C20.3544 24.3328 20.6936 24.4732 20.9437 24.7231C21.1938 24.9731 21.3344 25.3122 21.3345 25.6658C21.3345 26.0195 21.1942 26.3586 20.9442 26.6088C20.6942 26.8589 20.3551 26.9994 20.0015 26.9995C19.6478 26.9995 19.3087 26.859 19.0586 26.609C18.8086 26.3589 18.6681 26.0198 18.6681 25.6662C18.6681 25.3126 18.8086 24.9734 19.0586 24.7234C19.3087 24.4733 19.6472 24.3328 20.0008 24.3328ZM15.3341 7.00618C19.5588 7.00618 21.9555 9.80218 22.3041 13.1795H22.4108C25.1295 13.1795 27.3335 15.3775 27.3335 18.0888C27.3335 20.8008 25.1295 22.9988 22.4101 22.9988H8.25812C5.53946 22.9988 3.33546 20.8008 3.33546 18.0888C3.33546 15.3775 5.53946 13.1788 8.25812 13.1788H8.36479C8.71546 9.77951 11.1101 7.00551 15.3348 7.00551L15.3341 7.00618ZM3.04679 12.4595C3.1919 12.7107 3.23822 13.007 3.17671 13.2905C3.1152 13.574 2.95028 13.8244 2.71412 13.9928L2.61946 14.0528L1.75346 14.5528C1.49389 14.7032 1.18637 14.7478 0.894765 14.6774C0.603164 14.607 0.349892 14.427 0.187553 14.1747C0.0252129 13.9224 -0.0337181 13.6173 0.0229989 13.3228C0.0797159 13.0282 0.247722 12.7668 0.492124 12.5928L0.586791 12.5328L1.45346 12.0328C1.72135 11.8782 2.03967 11.8363 2.33846 11.9163C2.63724 11.9963 2.89202 12.1917 3.04679 12.4595ZM12.4735 6.10751C9.93946 6.92085 8.13412 8.83418 7.39346 11.3882L7.33079 11.6155L7.25346 11.9328L6.97879 11.9842C6.18076 12.152 5.4238 12.476 4.75146 12.9375C4.13845 11.887 3.90878 10.6565 4.10161 9.45558C4.29444 8.25471 4.89782 7.1579 5.80888 6.35214C6.71995 5.54639 7.88229 5.08158 9.09772 5.03697C10.3132 4.99236 11.5058 5.37071 12.4735 6.10751ZM1.67079 5.65151L1.75879 5.68885L2.66546 6.11151C2.93792 6.23908 3.15057 6.46697 3.25901 6.74759C3.36745 7.02822 3.36329 7.33988 3.2474 7.61751C3.13152 7.89514 2.91286 8.11728 2.63709 8.23753C2.36132 8.35778 2.04976 8.36685 1.76746 8.26285L1.67946 8.22618L0.772791 7.80351C0.498222 7.67725 0.28336 7.44937 0.173449 7.16786C0.063538 6.88634 0.0671539 6.57316 0.183535 6.29426C0.299917 6.01536 0.519982 5.79251 0.797393 5.67262C1.0748 5.55273 1.38791 5.54516 1.67079 5.65151ZM14.4108 1.81018C14.6509 1.97809 14.819 2.23019 14.8818 2.51638C14.9445 2.80257 14.8973 3.10189 14.7495 3.35485L14.6975 3.43485L14.1241 4.25485C13.952 4.50309 13.6903 4.6749 13.3941 4.73414C13.0979 4.79337 12.7903 4.7354 12.5359 4.57243C12.2816 4.40947 12.1004 4.1542 12.0304 3.86034C11.9604 3.56649 12.0072 3.25695 12.1608 2.99685L12.2128 2.91618L12.7861 2.09685C12.874 1.97127 12.9857 1.86423 13.115 1.78185C13.2442 1.69947 13.3885 1.64337 13.5394 1.61675C13.6903 1.59013 13.845 1.59351 13.9947 1.6267C14.1443 1.65989 14.2853 1.72224 14.4108 1.81018ZM7.55012 1.53085L7.59346 1.63485L7.93546 2.57485C8.03806 2.85652 8.0283 3.16688 7.9082 3.44155C7.7881 3.71621 7.56688 3.93411 7.29043 4.05004C7.01398 4.16597 6.70351 4.17104 6.42342 4.06419C6.14333 3.95735 5.91512 3.74678 5.78612 3.47618L5.74279 3.37218L5.40079 2.43218C5.29819 2.15051 5.30795 1.84015 5.42805 1.56548C5.54815 1.29081 5.76936 1.07292 6.04582 0.956984C6.32227 0.841053 6.63274 0.835985 6.91283 0.942833C7.19292 1.04968 7.42113 1.26024 7.55012 1.53085Z" fill="#C9C8CC"/>
</svg>
